<?xml version="1.0" encoding="UTF-8"?><svg id="Layer_2" xmlns="http://www.w3.org/2000/svg" viewBox="0 0 1100 350"><g id="Layer_2-2"><path d="M220,0H25C11.19,0,0,11.19,0,25V325c0,13.81,11.19,25,25,25H220c71.8,0,130-58.2,130-130v-90C350,58.2,291.8,0,220,0ZM112.5,120c0-4.14,1.68-7.89,4.4-10.6,2.71-2.72,6.46-4.4,10.6-4.4h70c8.28,0,15,6.72,15,15,0,4.14-1.68,7.89-4.4,10.6-2.71,2.72-6.46,4.4-10.6,4.4H127.5c-8.28,0-15-6.72-15-15Zm100.6,120.6c-2.71,2.72-6.46,4.4-10.6,4.4h-70c-8.28,0-15-6.72-15-15,0-4.14,1.68-7.89,4.4-10.6,2.71-2.72,6.46-4.4,10.6-4.4h70c8.28,0,15,6.72,15,15,0,4.14-1.68,7.89-4.4,10.6Z"/><path d="M725,130v195c0,13.81-11.19,25-25,25h-134.5V190c0-4.14-1.68-7.89-4.4-10.6-2.71-2.72-6.46-4.4-10.6-4.4-8.28,0-15,6.72-15,15v160h-135.5c-13.81,0-25-11.19-25-25V130C375,58.2,433.2,0,505,0h90c71.8,0,130,58.2,130,130Z"/><path d="M1100,25V110c0,71.8-58.2,130-130,130h-90c-71.8,0-130-58.2-130-130V25c0-13.81,11.19-25,25-25h136.5V106c0,4.14,1.68,7.89,4.4,10.6,2.71,2.72,6.46,4.4,10.6,4.4,8.28,0,15-6.72,15-15V0h133.5c13.81,0,25,11.19,25,25Z"/><rect x="838" y="265" width="175" height="85" rx="25" ry="25"/></g></svg>